<?xml version="1.0" encoding="UTF-8"?>
<svg width="59px" height="58px" viewBox="0 0 59 58" version="1.1" xmlns="http://www.w3.org/2000/svg" xmlns:xlink="http://www.w3.org/1999/xlink">
    <title>github</title>
    <g id="Welcome" stroke="none" stroke-width="1" fill="none" fill-rule="evenodd">
        <g id="Desktop" transform="translate(-684.000000, -7299.000000)" fill="#FFFFFF" fill-rule="nonzero">
            <g id="Footer" transform="translate(-7.000000, 7248.000000)">
                <g id="github" transform="translate(691.000000, 51.000000)">
                    <path d="M19,46.5 C19,46.7750169 18.787037,46.9950304 18.5185185,46.9950304 C18.212963,47.036283 18,46.8162694 18,46.5 C18,46.2249831 18.212963,46.0049696 18.4814815,46.0049696 C18.7592593,45.963717 19,46.1837306 19,46.5 Z M16.0130282,46.322803 C15.9479156,46.5787206 16.1339516,46.8730259 16.4130055,46.9498011 C16.6548522,47.0777599 16.9339061,46.9498011 16.9897169,46.6938835 C17.0455276,46.4379659 16.8687935,46.1436607 16.5897396,46.0284977 C16.3478929,45.9389266 16.0781408,46.0668854 16.0130282,46.322803 Z M21.438444,46.005566 C21.1638097,46.0960703 20.9744068,46.3417248 21.0028172,46.6390961 C21.0312276,46.8976798 21.2774515,47.0657592 21.561556,46.9752549 C21.8361903,46.8847506 22.0255932,46.6390961 21.9971828,46.3805124 C21.9687724,46.1348579 21.7130783,45.9667785 21.438444,46.005566 Z M29.1193548,0 C12.6207661,0 0,12.6288381 0,29.2634045 C0,42.5638617 8.30282258,53.9454071 20.1622984,57.9511354 C21.684879,58.226979 22.2201613,57.2795163 22.2201613,56.4999584 C22.2201613,55.7563801 22.1844758,51.6547062 22.1844758,49.1361345 C22.1844758,49.1361345 13.8578629,50.9351143 12.1092742,45.5621613 C12.1092742,45.5621613 10.7532258,42.0721405 8.80241935,41.1726506 C8.80241935,41.1726506 6.07842742,39.2897185 8.99274194,39.3256981 C8.99274194,39.3256981 11.9546371,39.565562 13.5842742,42.4199433 C16.1893145,47.0493179 20.5548387,45.7180729 22.2558468,44.9265218 C22.5294355,43.00761 23.302621,41.676365 24.1590726,40.8848139 C17.5096774,40.1412356 10.8008065,39.1697865 10.8008065,27.6323295 C10.8008065,24.3341999 11.7048387,22.6791385 13.6080645,20.5683355 C13.2987903,19.7887776 12.2877016,16.5746004 13.9173387,12.4249537 C16.4034274,11.6453958 22.125,15.6631173 22.125,15.6631173 C24.5040323,14.9914982 27.0614919,14.6436954 29.5951613,14.6436954 C32.1288306,14.6436954 34.6862903,14.9914982 37.0653226,15.6631173 C37.0653226,15.6631173 42.7868952,11.6334026 45.2729839,12.4249537 C46.902621,16.5865936 45.8915323,19.7887776 45.5822581,20.5683355 C47.4854839,22.6911317 48.6512097,24.3461931 48.6512097,27.6323295 C48.6512097,39.2057661 41.6449597,40.1292424 34.9955645,40.8848139 C36.0899194,41.8322766 37.0177419,43.6312564 37.0177419,46.449658 C37.0177419,50.4913659 36.9820565,55.4925297 36.9820565,56.475972 C36.9820565,57.2555299 37.5292339,58.2029926 39.0399194,57.927149 C50.9350806,53.9454071 59,42.5638617 59,29.2634045 C59,12.6288381 45.6179435,0 29.1193548,0 Z M12.1073091,42.0897001 C11.9342589,42.2220549 11.9741936,42.526471 12.20049,42.7779451 C12.4134749,42.9897128 12.7196407,43.0823611 12.8926909,42.9102999 C13.0657411,42.7779451 13.0258064,42.473529 12.79951,42.2220549 C12.5865251,42.0102872 12.2803593,41.9176389 12.1073091,42.0897001 Z M10.0316106,40.1833562 C9.93225532,40.4198621 10.0741915,40.7109463 10.3580638,40.8928739 C10.5851617,41.0748015 10.869034,41.0202232 10.9683894,40.7655245 C11.0677447,40.5290186 10.9258085,40.2379345 10.6419362,40.0560068 C10.3580638,39.9468503 10.130966,40.0014286 10.0316106,40.1833562 Z M14.0957063,45.1089662 C13.925258,45.2501729 13.9891761,45.5760343 14.2341956,45.7824133 C14.4792151,46.0322404 14.7881527,46.0648265 14.926642,45.8910338 C15.0651312,45.7498271 15.0012131,45.4239657 14.7881527,45.2175867 C14.5537862,44.9677596 14.2341956,44.9351735 14.0957063,45.1089662 Z M13.15,43.0628672 C12.95,43.1720046 12.95,43.4557618 13.15,43.7067778 C13.35,43.9577938 13.6875,44.0669312 13.85,43.9577938 C14.05,43.8159152 14.05,43.532158 13.85,43.281142 C13.675,43.030126 13.35,42.9209886 13.15,43.0628672 Z" id="Shape"></path>
                </g>
            </g>
        </g>
    </g>
</svg>